<svg width="64" height="64" viewBox="0 0 64 64" fill="none">
  <rect x="13" y="26" width="38" height="28" rx="7" fill="#aef2fa" stroke="#48a6e6" stroke-width="2"/>
  <rect x="18" y="32" width="28" height="16" rx="5" fill="#fff" stroke="#93d5ee" stroke-width="1.5"/>
  <ellipse cx="32" cy="40" rx="6" ry="3" fill="#48a6e6"/>
  <rect x="28" y="12" width="8" height="16" rx="4" fill="#ddd"/>
  <rect x="30" y="5" width="4" height="10" rx="2" fill="#48a6e6"/>
  <circle cx="20" cy="48" r="2.5" fill="#48a6e6"/>
  <circle cx="44" cy="48" r="2.5" fill="#48a6e6"/>
  <rect x="22" y="50" width="20" height="3" rx="1.5" fill="#48a6e6"/>
  <!-- Gear/cog for "lab" element -->
  <circle cx="52" cy="22" r="5" fill="#f7e94f" stroke="#bfa800" stroke-width="1"/>
  <g>
    <rect x="51" y="15" width="2" height="4" rx="1" fill="#bfa800" transform="rotate(15 52 17)"/>
    <rect x="54" y="18" width="2" height="4" rx="1" fill="#bfa800" transform="rotate(45 55 20)"/>
    <rect x="54" y="23" width="2" height="4" rx="1" fill="#bfa800" transform="rotate(75 55 25)"/>
    <rect x="51" y="26" width="2" height="4" rx="1" fill="#bfa800" transform="rotate(105 52 28)"/>
    <rect x="48" y="25" width="2" height="4" rx="1" fill="#bfa800" transform="rotate(135 49 27)"/>
    <rect x="47" y="20" width="2" height="4" rx="1" fill="#bfa800" transform="rotate(165 48 22)"/>
  </g>
</svg>